<mxfile host="app.diagrams.net" modified="2024-04-12T05:56:21.898Z" agent="Mozilla/5.0 (Windows NT 10.0; Win64; x64) AppleWebKit/537.36 (KHTML, like Gecko) Chrome/123.0.0.0 Safari/537.36" version="24.2.3" etag="PgituKpgKoD77EZUfeWN" type="github">
  <diagram name="페이지-1" id="eM1RQcBQTnjvss3O-N_B">
    <mxGraphModel>
      <root>
        <mxCell id="0" />
        <mxCell id="1" parent="0" />
      </root>
    </mxGraphModel>
  </diagram>
</mxfile>
